PathFileType	4	(X/Y/Z)	E:\Qualisys_Data\Carbon_Farble_Plate\Data\Amateur_Runner\S1\T2\S1T2V22_c3d.trc
DataRate	CameraRate	NumFrames	NumMarkers	Units	OrigDataRate	OrigDataStartFrame	OrigNumFrames
200.000000	200.000000	4	39	mm	200.000000	190	304
Frame#	Time	LSHO			RSHO			LICST			RICST			LASIS			LHEEL			RASIS			LTROC			RTROC			SACR			LTH1			LSK4			LTH2			LTH3			RHM5			LSK2			LTH4			RTH1			LTOE			RTH2			RTH3			RTH4			LLEP			RLEP			LSK1			LSK3			RSK1			LHM5			RSK2			LFT1			RSK3			RSK4			LLME			RLME			RTOE			RHEEL			RFT1			RFT2			LFT2			
		X1	Y1	Z1	X2	Y2	Z2	X3	Y3	Z3	X4	Y4	Z4	X5	Y5	Z5	X6	Y6	Z6	X7	Y7	Z7	X8	Y8	Z8	X9	Y9	Z9	X10	Y10	Z10	X11	Y11	Z11	X12	Y12	Z12	X13	Y13	Z13	X14	Y14	Z14	X15	Y15	Z15	X16	Y16	Z16	X17	Y17	Z17	X18	Y18	Z18	X19	Y19	Z19	X20	Y20	Z20	X21	Y21	Z21	X22	Y22	Z22	X23	Y23	Z23	X24	Y24	Z24	X25	Y25	Z25	X26	Y26	Z26	X27	Y27	Z27	X28	Y28	Z28	X29	Y29	Z29	X30	Y30	Z30	X31	Y31	Z31	X32	Y32	Z32	X33	Y33	Z33	X34	Y34	Z34	X35	Y35	Z35	X36	Y36	Z36	X37	Y37	Z37	X38	Y38	Z38	X39	Y39	Z39	

191	0.95	394.0450744628906	1468.404541015625	-565.78564453125	393.930419921875	1423.283569335938	-236.1098022460938	345.1046142578125	978.9580688476562	-554.1621704101562	353.4801025390625	1012.484252929688	-253.1258697509766	391.870849609375	945.3953247070312	-527.1604614257812	130.1698608398438	359.0727233886719	-457.6531372070312	392.3786010742188	963.26708984375	-260.5401611328125	295.4151916503906	855.9810180664062	-564.8697509765625	282.6587524414062	876.2190551757812	-226.8857269287109	232.0433197021484	1011.276489257812	-398.7709350585938	481.784912109375	773.8772583007812	-542.4749145507812	270.7647094726562	431.71630859375	-493.8765869140625	416.3811645507812	727.0913696289062	-573.2515869140625	537.098876953125	686.111572265625	-534.0594482421875	252.7409515380859	52.61870193481445	-277.7624816894531	358.3335876464844	472.0174255371094	-531.465576171875	466.6493530273438	641.1005249023438	-555.533203125	416.5834045410156	744.9965209960938	-250.4277496337891	259.4364929199219	140.4905853271484	-461.162109375	340.8079528808594	738.7885131835938	-224.8006439208984	420.728271484375	644.0850830078125	-260.294189453125	341.8714294433594	640.7579956054688	-243.2216644287109	554.7766723632812	526.2523803710938	-522.212646484375	374.3363952636719	471.4139404296875	-290.8067321777344	392.7764282226562	396.766357421875	-520.4674682617188	298.5476379394531	359.2152709960938	-514.9261474609375	288.1622924804688	298.9880676269531	-283.9789123535156	197.3549041748047	178.6666717529297	-527.9697875976562	217.3237152099609	339.6852416992188	-284.1804809570312	112.4617004394531	337.3795166015625	-430.7793884277344	238.9942932128906	212.2542266845703	-299.9989013671875	170.6231231689453	253.9693603515625	-312.0377197265625	181.7249298095703	329.9429931640625	-509.4022521972656	144.0016632080078	123.796257019043	-299.5625610351562	316.5693969726562	57.79205322265625	-354.9967956542969	63.70010757446289	98.11234283447266	-340.6958923339844	71.29354858398438	64.75717163085938	-369.6978149414062	60.7871208190918	72.7262954711914	-314.8006286621094	105.5954055786133	337.5506896972656	-486.1510620117188
192	0.955	410.2229919433594	1472.068481445312	-567.1861572265625	415.5639343261719	1427.77294921875	-237.6666412353516	364.8481750488281	984.22705078125	-553.9581909179688	375.0920715332031	1015.267456054688	-253.4232788085938	411.9193420410156	950.0333862304688	-526.1406860351562	161.9397888183594	347.2315673828125	-457.6747436523438	413.5570678710938	965.5213623046876	-260.8267517089844	316.3133544921875	860.9444580078125	-566.2750854492188	302.0543823242188	878.9102783203125	-227.7856750488281	251.8019104003906	1014.774841308594	-398.112060546875	502.8502197265625	781.1949462890625	-541.9428100585938	299.401123046875	426.615478515625	-494.1951904296875	438.2606811523438	733.4706420898438	-573.078125	559.414306640625	694.4443359375	-533.2186279296875	253.5424957275391	53.36581802368164	-278.5230102539062	385.691162109375	471.29443359375	-530.8406982421875	489.9656982421875	648.0263061523438	-554.8125	433.3607482910156	745.5048217773438	-253.2852478027344	302.0947875976562	135.3836975097656	-462.2092895507812	357.9090881347656	741.1524047851562	-225.6745758056641	433.998779296875	644.408447265625	-263.3420715332031	355.8108520507812	643.0657958984375	-244.3100891113281	579.64501953125	534.0130004882812	-521.2501831054688	380.7241516113281	472.1665344238281	-292.104248046875	423.6184997558594	396.3502502441406	-519.7454223632812	330.9380493164062	355.4663696289062	-514.9366455078125	291.7893676757812	301.8718872070312	-284.0738830566406	237.9199676513672	171.0100555419922	-528.8812255859375	219.8137664794922	344.1716613769531	-285.8206481933594	145.1106719970703	324.6475830078125	-430.8223266601562	241.7552947998047	215.8141937255859	-299.8976135253906	173.9987487792969	257.738525390625	-312.809326171875	214.9541015625	320.6155090332031	-509.8673400878906	146.0971832275391	127.4199447631836	-299.5495910644531	317.2046813964844	57.52427291870117	-355.6377258300781	64.90784454345703	100.7741241455078	-342.1002807617188	72.0969009399414	68.27435302734375	-370.1210632324219	63.84309387207031	74.50077056884766	-315.5128479003906	138.4523162841797	324.8102111816406	-486.7926330566406
193	0.96	426.4463806152344	1476.038818359375	-568.4188232421875	437.5923156738281	1432.708984375	-239.3219604492188	384.9970092773438	989.3925170898438	-553.841552734375	396.0171813964844	1017.911376953125	-253.9142608642578	431.7600402832031	955.3819580078124	-526.4671630859375	193.9370422363281	335.5120239257812	-458.1458129882812	434.2842407226562	968.0828247070312	-261.1909484863281	337.3927307128906	866.0457153320312	-567.529052734375	321.7677001953125	881.9395751953125	-228.5838012695312	271.7768859863281	1018.321350097656	-397.5244445800781	524.118408203125	788.5346069335938	-541.4091796875	327.9193115234375	421.3536682128906	-494.1690063476562	460.4353637695312	739.8280029296875	-572.9275512695312	581.6063232421875	702.2449951171875	-532.2838134765625	253.6920623779297	53.96371841430664	-278.9908447265625	412.4126892089844	470.1378173828125	-530.0331420898438	512.9473876953125	655.0804443359375	-554.719970703125	450.0357360839844	746.0348510742188	-256.1840515136719	344.9158630371094	130.8652038574219	-463.1745300292969	374.800537109375	743.689697265625	-227.0657501220703	448.0167236328125	645.0697631835938	-266.1541137695312	369.8073425292969	645.8655395507812	-245.4120635986328	604.0680541992188	541.3856201171875	-520.2512817382812	386.8685302734375	473.9492797851562	-293.3926696777344	453.6481018066406	396.7462158203125	-519.8171997070312	362.8739929199219	352.0344543457031	-515.0714111328125	295.4913940429688	305.4790954589844	-284.5094604492188	279.0230102539062	163.5748596191406	-529.6895751953125	224.2068328857422	348.39599609375	-287.4828186035156	176.8211364746094	310.529296875	-433.2795715332031	244.6551666259766	219.8942413330078	-299.9354553222656	177.2580413818359	262.4472351074219	-313.8538513183594	248.2918548583984	312.1806945800781	-510.4875183105469	148.4348297119141	131.8213653564453	-299.6470031738281	317.6376037597656	57.35169982910156	-356.0090637207031	67.57788848876953	106.121208190918	-341.6849670410156	73.72762298583984	74.35619354248047	-369.4313659667969	66.13123321533203	79.90526580810547	-315.0197143554688	172.0102691650391	311.7532958984375	-487.1093139648438
194	0.965	442.7400817871094	1479.813720703125	-569.6533203125	459.4033203125	1437.405517578125	-240.9087524414062	404.98046875	994.4906005859376	-553.5294189453125	416.8628540039062	1019.958740234375	-252.8919677734375	450.9710083007812	959.8836059570312	-526.7433471679688	225.4964447021484	322.6188049316406	-459.6137390136719	454.8441162109375	970.4328002929688	-261.4970703125	358.8742980957031	871.5393676757812	-568.8594360351562	342.1288757324219	885.234375	-229.2079162597656	292.603515625	1022.243591308594	-397.1955871582031	545.6318969726562	795.450927734375	-540.8187255859375	356.4782104492188	416.0625	-493.9798583984375	482.3971252441406	745.9459838867188	-572.8665161132812	603.8389282226562	710.0414428710938	-531.3239135742188	254.5126495361328	54.45334625244141	-279.44091796875	438.6310119628906	468.643798828125	-529.41552734375	535.7614135742188	662.2938842773438	-553.9196166992188	466.5831298828125	746.9345092773438	-258.8134155273438	387.8713684082031	126.840087890625	-464.0636291503906	391.8705749511719	746.7141723632812	-229.0125732421875	460.9725952148438	646.2186279296875	-268.4749145507812	383.361083984375	649.0928344726562	-246.6518859863281	628.0032348632812	548.5010375976562	-519.3792724609375	393.1347045898438	476.7567443847656	-294.2799072265625	483.2700805664062	398.2269897460938	-519.7164916992188	394.8894653320312	348.5056762695312	-515.5115966796875	299.8092346191406	309.5509033203125	-284.9475402832031	320.5121154785156	156.1359558105469	-530.2676391601562	229.1085968017578	353.1301879882812	-288.6030578613281	211.3257904052734	297.1851501464844	-434.046142578125	248.3653869628906	224.201416015625	-300.029052734375	181.3135223388672	268.0265502929688	-314.5350036621094	282.254150390625	302.8806762695312	-510.6748657226562	151.0680084228516	136.5169525146484	-299.3839416503906	318.5960083007812	56.85940933227539	-356.4463195800781	70.58544921875	113.185791015625	-340.5316162109375	76.17938995361328	80.7600326538086	-368.7111206054688	68.64547729492188	86.39965057373047	-314.4200439453125	206.1651611328125	298.7492065429688	-487.6004638671875
